<svg xmlns="http://www.w3.org/2000/svg" viewBox="0 0 512 512">
    <path fill="#67666c" d="M113.78,369.78c0,31.42-25.47,56.89-56.89,56.89C25.47,426.67,0,401.2,0,369.78c0-31.42,25.47-56.89,56.89-56.89C88.31,312.89,113.78,338.36,113.78,369.78zM113.78,142.22c0,31.42-25.47,56.89-56.89,56.89C25.47,199.11,0,173.64,0,142.22c0-31.42,25.47-56.89,56.89-56.89C88.31,85.33,113.78,110.8,113.78,142.22zM312.89,369.78c0,31.42-25.47,56.89-56.89,56.89c-31.42,0-56.89-25.47-56.89-56.89c0-31.42,25.47-56.89,56.89-56.89C287.42,312.89,312.89,338.36,312.89,369.78zM312.89,142.22c0,31.42-25.47,56.89-56.89,56.89c-31.42,0-56.89-25.47-56.89-56.89c0-31.42,25.47-56.89,56.89-56.89C287.42,85.33,312.89,110.8,312.89,142.22zM512,369.78c0,31.42-25.47,56.89-56.89,56.89c-31.42,0-56.89-25.47-56.89-56.89c0-31.42,25.47-56.89,56.89-56.89C486.53,312.89,512,338.36,512,369.78zM512,142.22c0,31.42-25.47,56.89-56.89,56.89c-31.42,0-56.89-25.47-56.89-56.89c0-31.42,25.47-56.89,56.89-56.89C486.53,85.33,512,110.8,512,142.22z"/>
</svg>
